<?xml version="1.0" encoding="UTF-8" standalone="no"?>
<!DOCTYPE svg PUBLIC "-//W3C//DTD SVG 1.1//EN" "http://www.w3.org/Graphics/SVG/1.1/DTD/svg11.dtd">
<svg width="100%" height="100%" viewBox="0 0 256 256" version="1.1" xmlns="http://www.w3.org/2000/svg" xmlns:xlink="http://www.w3.org/1999/xlink" xml:space="preserve" xmlns:serif="http://www.serif.com/" style="fill-rule:evenodd;clip-rule:evenodd;stroke-linejoin:round;stroke-miterlimit:1.41421;">
    <path d="M23,65.6L130,3.3L237,65.6L237,190.1L130,252.4L23,190.1L23,65.6Z" style="fill:rgb(241,241,233);fill-rule:nonzero;"/>
    <path d="M136.8,4.2C132,1.5 124.3,1.5 119.5,4.2L24.7,58.7C19.9,61.4 16.1,68.2 16.1,73.6L16.1,182.6C16.1,188.1 20,194.8 24.7,197.5L119.5,252C124.3,254.7 132,254.7 136.8,252L231.6,197.5C236.4,194.8 240.2,188 240.2,182.6L240.2,73.6C240.2,68.1 236.3,61.4 231.6,58.7L136.8,4.2ZM220.9,61.2C225.7,63.9 225.7,68.4 220.9,71.1L137.9,118.8C133.1,121.5 125.4,121.5 120.6,118.8L36.4,70.4C31.6,67.7 31.6,63.2 36.4,60.5L119.4,12.8C124.2,10.1 131.9,10.1 136.7,12.8L220.9,61.2ZM23.5,81.5C23.5,76 27.4,73.8 32.1,76.5L117,125.3C121.8,128 125.6,134.8 125.6,140.2L125.6,237C125.6,242.5 121.7,244.7 117,242L32.1,193.2C27.3,190.5 23.5,183.7 23.5,178.3L23.5,81.5ZM141.8,240.5C137,243.2 133.2,241 133.2,235.5L133.2,140.2C133.2,134.7 137.1,128 141.8,125.3L224.2,78C229,75.3 232.8,77.5 232.8,83L232.8,178.3C232.8,183.8 228.9,190.5 224.2,193.2L141.8,240.5Z" style="fill:rgb(188,181,164);fill-rule:nonzero;"/>
    <g transform="matrix(0.915111,-0.524089,0.0145692,1.04337,138.945,133.656)">
        <path d="M92.71,44.408L52.591,4.291C50.281,1.98 46.534,1.98 44.222,4.291L35.892,12.623L46.459,23.19C48.915,22.36 51.731,22.917 53.688,24.875C55.657,26.845 56.209,29.685 55.358,32.15L65.544,42.335C68.009,41.485 70.851,42.035 72.819,44.006C75.569,46.756 75.569,51.212 72.819,53.964C70.067,56.715 65.611,56.715 62.858,53.964C60.79,51.894 60.278,48.854 61.327,46.306L51.827,36.807L51.827,61.804C52.497,62.136 53.13,62.578 53.688,63.136C56.438,65.886 56.438,70.342 53.688,73.095C50.938,75.844 46.479,75.844 43.731,73.095C40.981,70.341 40.981,65.885 43.731,63.136C44.411,62.457 45.198,61.943 46.038,61.599L46.038,36.369C45.198,36.025 44.413,35.516 43.731,34.832C41.648,32.75 41.147,29.692 42.215,27.134L31.798,16.715L4.288,44.222C1.977,46.535 1.977,50.282 4.288,52.593L44.409,92.711C46.719,95.022 50.465,95.022 52.778,92.711L92.71,52.779C95.021,50.468 95.021,46.719 92.71,44.408Z" style="fill:rgb(240,81,51);fill-rule:nonzero;"/>
    </g>
</svg>
